<?xml version="1.0" standalone="no"?>
<!DOCTYPE svg PUBLIC "-//W3C//DTD SVG 20010904//EN"
 "http://www.w3.org/TR/2001/REC-SVG-20010904/DTD/svg10.dtd">
<svg version="1.0" xmlns="http://www.w3.org/2000/svg"
 width="699.000000pt" height="699.000000pt" viewBox="0 0 699.000000 699.000000"
 preserveAspectRatio="xMidYMid meet">
<metadata>
Created by potrace 1.14, written by Peter Selinger 2001-2017
</metadata>
<g transform="translate(0.000000,699.000000) scale(0.100000,-0.100000)"
fill="#000000" stroke="none">
<path d="M1894 6255 c-44 -14 -107 -51 -139 -83 -21 -21 -38 -38 -220 -237
-66 -71 -129 -139 -140 -151 -47 -49 -232 -249 -248 -268 -10 -12 -67 -73
-125 -136 -59 -63 -138 -148 -176 -190 -130 -141 -162 -175 -292 -315 -72 -77
-142 -153 -157 -170 -14 -16 -43 -48 -63 -70 -47 -51 -67 -97 -99 -226 -32
-128 -29 -117 -55 -219 -11 -47 -23 -94 -25 -105 -3 -11 -25 -103 -51 -205
-25 -102 -47 -192 -49 -200 -2 -8 -13 -53 -25 -100 -23 -88 -28 -160 -15 -220
6 -31 60 -138 143 -285 16 -27 48 -86 72 -130 23 -44 46 -84 50 -90 4 -5 24
-41 45 -80 21 -38 94 -171 163 -295 153 -274 169 -303 257 -465 39 -71 89
-148 113 -173 46 -46 122 -87 182 -97 46 -8 73 -12 150 -25 36 -5 77 -12 93
-15 15 -3 39 -7 55 -10 15 -2 38 -7 52 -9 23 -5 44 -8 140 -22 19 -3 58 -9 85
-14 28 -5 66 -12 85 -15 19 -3 46 -7 60 -10 14 -3 41 -7 60 -10 19 -3 46 -7
60 -10 31 -6 73 -13 125 -20 22 -4 47 -8 55 -10 8 -2 33 -7 55 -10 23 -3 50
-7 60 -9 11 -2 40 -7 65 -11 25 -4 52 -9 60 -10 8 -1 35 -6 60 -10 25 -4 54
-9 65 -11 10 -2 37 -6 60 -9 22 -3 63 -10 90 -15 28 -5 64 -12 80 -14 43 -7
203 -34 250 -43 41 -7 106 -8 300 -4 318 7 639 -66 940 -214 212 -105 377
-223 564 -405 134 -130 208 -175 331 -204 67 -16 204 -14 270 4 107 29 235
107 322 197 131 136 256 378 294 568 26 129 36 200 39 268 2 45 4 90 4 100 1
9 8 17 16 17 35 0 267 84 357 130 276 138 477 339 563 564 42 111 41 106 49
146 40 180 39 335 -4 532 -32 145 -72 253 -158 423 -39 77 -46 99 -48 158 -4
149 -14 343 -18 362 -2 11 -7 43 -10 70 -48 377 -213 689 -481 908 -135 110
-433 261 -597 302 -16 4 -59 43 -109 98 -228 253 -383 379 -581 471 -91 43
-228 89 -297 101 -19 3 -37 8 -41 10 -15 9 -164 20 -270 20 -105 -1 -222 -9
-281 -20 -13 -3 -41 -7 -63 -11 -22 -3 -44 -7 -47 -10 -4 -2 -24 -6 -45 -10
-20 -3 -80 -19 -133 -34 -53 -16 -121 -33 -151 -38 -52 -10 -267 -9 -320 1
-36 7 -291 72 -460 117 -80 21 -179 48 -220 59 -87 23 -419 115 -500 138 -71
20 -174 24 -226 8z"/>
</g>
</svg>
